# xmcd CD database file
#
# Track frame offsets:
#	150
#	31832
#	62593
#	79284
#	103977
#	134830
#	164282
#	209104
#	240559
#	265567
#	293947
#	328064
#
# Disc length: 4763 seconds
#
# Revision: 1
# Processed by: cddbd v1.5.2PL0 Copyright (c) Steve Scherf et al.
# Submitted via: CDex 1.99.1
#
DISCID=b712990c
DTITLE=Oliver Nelson - The Complete Prestige Collection 1/4
DYEAR=2017
DGENRE=Jazz
TTITLE0=Jams And Jellies
TTITLE1=Passion Flower
TTITLE2=Don't Stand Up
TTITLE3=Ostinato
TTITLE4=What's New
TTITLE5=Booze Baby Blues
TTITLE6=Trane Whistle
TTITLE7=Doxy
TTITLE8=In Time
TTITLE9=Lou's Good Dues
TTITLE10=All The Way
TTITLE11=Groove
EXTD=YEAR: 2017
EXTT0=
EXTT1=
EXTT2=
EXTT3=
EXTT4=
EXTT5=
EXTT6=
EXTT7=
EXTT8=
EXTT9=
EXTT10=
EXTT11=
PLAYORDER=
